<?xml version="1.0" ?>
<!-- Uploaded to: SVG Repo, www.svgrepo.com, Generator: SVG Repo Mixer Tools -->
<svg fill="#000000" width="800px" height="800px" viewBox="-1.12 0 31.153 31.153" xmlns="http://www.w3.org/2000/svg">
<g transform="translate(-418.835 -386.239)">
<path d="M440.657,388.239v27.01H421.329a.494.494,0,0,1-.494-.494v-26.42a.1.1,0,0,1,.1-.1h19.726m2-2H420.931a2.1,2.1,0,0,0-2.1,2.1v26.42a2.494,2.494,0,0,0,2.494,2.494h21.328v-31.01Z"/>
<path d="M436.889,395.965v3.779h-11.8v-3.779h11.8m2-2h-15.8v7.779h15.8v-7.779Z"/>
<path d="M443.646,417.392l-1.979-.287,3.767-26.043h-2.777v-2h5.088Z"/>
</g>
</svg>